<svg id="Grupo_2" data-name="Grupo 2" xmlns="http://www.w3.org/2000/svg" width="298.428" height="99.217" viewBox="0 0 298.428 99.217">
  <path id="Trazado_1" data-name="Trazado 1" d="M301.016,58.99c-.045.579-.4.936-1.114,1.025H287.114c-1.024,0-1.515-.312-1.559-1.025,0-1.426,2.362-2.451,1.47-5.124l-.312-.8a1.337,1.337,0,0,0-1.292-.935h-8.689a1.355,1.355,0,0,0-1.292.891l-.312.847c-1.114,2.985,2.094,3.609,1.916,5.124-.045.713-.534,1.025-1.559,1.025H268.89c-1.024,0-1.515-.312-1.559-1.025-.089-1.559,2.094-1.337,3.654-5.124L278.2,34.974a2.721,2.721,0,0,0-.4-3.208c-.847-1.2-1.114-1.337-1.069-1.916.045-.668.49-1.024,1.515-1.024h6.416c2.095,0,2.763.757,3.342,2.317.223.579,5.971,14.437,9.58,22.724,1.649,3.876,3.52,3.52,3.431,5.124M284.842,47.717l-3.03-8.733a.549.549,0,0,0-1.024,0l-3.3,8.644a.838.838,0,0,0,.8,1.158h5.793a.791.791,0,0,0,.757-1.069" transform="translate(-174.364 -18.801)" fill="#fff"/>
  <path id="Trazado_2" data-name="Trazado 2" d="M381.412,69.85c1.559,1.248-1.559,7.575-8.956,7.575-5.614,0-12.61-3.787-12.61-11.228a11.5,11.5,0,0,1,11.764-11.362c4.055,0,6.1,1.158,8.109,3.164,1.47,1.47,2.451,4.144.49,6.015-1.693,1.648-5.615,1.47-6.639-3.386-.4-1.916-1.381-2.54-2.584-2.362-1.961.267-3.3,3.075-2.585,7.04.713,4.188,2.807,6.683,6.193,6.683a7.3,7.3,0,0,0,4.322-1.782c1.2-.98,2.005-.8,2.5-.356" transform="translate(-234.708 -35.765)" fill="#fff"/>
  <path id="Trazado_3" data-name="Trazado 3" d="M447.269,75.954c-.045.713-.4.936-1.56,1.025,0,0-5.392.445-7.04.445-1.158,0-1.6-.445-1.737-1.381,0-.267-.268-.312-.445-.134a7.347,7.347,0,0,1-4.59,1.515c-4.812,0-8.243-2.807-8.243-7.129,0-6.416,8.733-9,12.788-5.347a.279.279,0,0,0,.49-.178V63.746c0-2.718.134-5.169-1.471-5.436-2.273-.4-2.317,1.916-3.208,3.163a3.56,3.56,0,0,1-5.391.134c-2.094-2.852,1.693-6.773,8.377-6.773,6.1,0,10.337,2.763,10.337,9.268v6.817c0,1.693.045,2.273.624,3.119.847,1.2,1.114,1.337,1.07,1.916m-10.337-6.06c-.312-2.406-1.783-4.188-3.208-3.965-1.426.178-2.272,2.317-1.916,4.678.312,2.406,1.738,4.188,3.164,3.965,1.426-.178,2.317-2.317,1.961-4.678" transform="translate(-276.326 -35.765)" fill="#fff"/>
  <path id="Trazado_4" data-name="Trazado 4" d="M516.74,56.218c.891,1.2,1.158,1.336,1.114,1.915-.089.713-.534,1.025-1.559,1.025h-6.862c-1.248,0-1.426-.446-1.47-1.693,0-.134-.178-.223-.268-.134a8.386,8.386,0,0,1-5.882,2.272,11,11,0,0,1-11.407-11.318c0-6.015,4.768-12.164,12.12-11.139a8.668,8.668,0,0,1,4.188,1.871c.267.223.713.312.713-.312V36.123c0-1.782-.045-2.317-.624-3.208-.891-1.158-1.159-1.292-1.114-1.916.089-.8.713-1.025,1.738-1.382,1.6-.579,6.015-1.871,6.015-1.871,2.718-.8,2.673.579,2.673,2.362v22.9c0,1.782.044,2.362.624,3.208m-9.49-8.511c-.579-4.278-2.986-7.575-5.3-7.263-2.317.356-3.7,4.188-3.074,8.466.624,4.322,3.03,7.619,5.347,7.263,2.317-.312,3.654-4.144,3.03-8.466" transform="translate(-319.866 -17.945)" fill="#fff"/>
  <path id="Trazado_5" data-name="Trazado 5" d="M582.759,77.425c-5.748,0-12.654-3.787-12.654-11.228a11.512,11.512,0,0,1,11.808-11.362c6.55,0,9.936,4.367,9.981,7.441,0,2.362-1.782,3.208-4.5,3.876-1.515.356-7.174,1.515-7.174,1.515-.668.089-.668.713-.4,1.292a5.2,5.2,0,0,0,5.08,3.03,7.3,7.3,0,0,0,4.322-1.782c1.2-.98,2.005-.8,2.5-.356,1.56,1.248-1.56,7.575-8.956,7.575m-3.3-13.055,3.609-.847c1.158-.223,1.381-1.025,1.292-1.515-.357-2.05-1.648-4.055-3.743-3.743-1.515.223-2.718,1.56-2.272,5.3a.888.888,0,0,0,1.114.8" transform="translate(-371.848 -35.765)" fill="#fff"/>
  <path id="Trazado_6" data-name="Trazado 6" d="M675.661,75.955c-.045.713-.535,1.025-1.56,1.025h-9.045c-1.025,0-1.471-.312-1.559-1.025,0-.579.267-.713,1.114-1.916.579-.846.624-1.426.624-3.208v-5.08c0-3.075.356-7-2.406-7-1.961,0-3.164,1.47-3.253,4.054v8.021c0,1.782.044,2.362.668,3.208.847,1.2,1.114,1.337,1.069,1.916-.044.713-.534,1.025-1.559,1.025h-9.045c-1.025,0-1.47-.312-1.559-1.025,0-.579.223-.713,1.114-1.916.579-.846.624-1.426.624-3.208v-5.08c0-3.075.4-7-2.406-7-2.005,0-3.208,1.515-3.253,4.233v7.842c0,1.782.044,2.362.624,3.208.891,1.2,1.158,1.337,1.114,1.916-.089.713-.535,1.025-1.559,1.025h-9.045c-1.024,0-1.515-.312-1.559-1.025-.044-.579.223-.713,1.114-1.916.579-.846.624-1.426.624-3.208V64.816c0-1.783-.044-3.7-.624-4.545-.891-1.2-1.158-1.336-1.114-1.916.089-.847.713-1.025,1.738-1.426,1.6-.579,5.971-1.827,5.971-1.827,2.451-.757,2.718.223,2.718,1.872a.291.291,0,0,0,.49.223,9.442,9.442,0,0,1,6.193-2.362c3.342,0,5.347,1.247,6.506,2.985a.613.613,0,0,0,.935.089,9.371,9.371,0,0,1,6.639-3.074c5.837,0,7.976,3.876,7.976,7.307v8.689c0,1.782,0,2.362.624,3.208.847,1.2,1.114,1.337,1.069,1.916" transform="translate(-414.043 -35.766)" fill="#fff"/>
  <path id="Trazado_7" data-name="Trazado 7" d="M767.281,57.151c-.089.713-.535,1.025-1.559,1.025h-9.046c-1.024,0-1.515-.312-1.559-1.025-.044-.579.223-.713,1.069-1.916.624-.847.668-1.426.668-3.208V46.011c0-1.783-.044-3.7-.668-4.545-.847-1.2-1.114-1.337-1.069-1.916.089-.846.713-1.025,1.738-1.425,1.6-.579,5.971-1.827,5.971-1.827,2.763-.847,2.718.579,2.718,2.362V52.026c0,1.782.045,2.362.624,3.208.891,1.2,1.158,1.337,1.114,1.916M755.518,30.238c0-2.362,2.406-4.233,5.392-4.233s5.436,1.872,5.436,4.233c0,2.317-2.451,4.233-5.436,4.233s-5.392-1.916-5.392-4.233" transform="translate(-492.518 -16.962)" fill="#fff"/>
  <path id="Trazado_8" data-name="Trazado 8" d="M813.848,75.954c-.045.713-.4.936-1.56,1.025,0,0-5.392.445-7.04.445-1.158,0-1.6-.445-1.737-1.381,0-.267-.268-.312-.446-.134a7.345,7.345,0,0,1-4.589,1.515c-4.812,0-8.243-2.807-8.243-7.129,0-6.416,8.734-9,12.788-5.347a.279.279,0,0,0,.49-.178V63.746c0-2.718.134-5.169-1.471-5.436-2.273-.4-2.317,1.916-3.208,3.163a3.56,3.56,0,0,1-5.391.134c-2.094-2.852,1.693-6.773,8.377-6.773,6.1,0,10.337,2.763,10.337,9.268v6.817c0,1.693.045,2.273.624,3.119.847,1.2,1.114,1.337,1.07,1.916m-10.337-6.06c-.312-2.406-1.783-4.188-3.208-3.965-1.426.178-2.272,2.317-1.916,4.678.312,2.406,1.738,4.188,3.163,3.965,1.426-.178,2.317-2.317,1.961-4.678" transform="translate(-515.425 -35.765)" fill="#fff"/>
  <path id="Trazado_9" data-name="Trazado 9" d="M286.913,156.341c.663.895.861.994.828,1.425-.066.53-.4.762-1.16.762h-5.1c-.928,0-1.061-.331-1.094-1.259,0-.1-.132-.165-.2-.1a6.236,6.236,0,0,1-4.374,1.69,8.179,8.179,0,0,1-8.484-8.417c0-4.474,3.546-9.047,9.014-8.285a6.451,6.451,0,0,1,3.115,1.392c.2.166.53.232.53-.232V141.4a3.583,3.583,0,0,0-.464-2.386c-.663-.862-.862-.961-.829-1.425.066-.6.53-.762,1.293-1.027,1.193-.431,4.474-1.392,4.474-1.392,2.022-.6,1.988.431,1.988,1.756v17.034c0,1.326.033,1.757.464,2.386m-7.059-6.329c-.431-3.182-2.22-5.634-3.944-5.4-1.723.265-2.75,3.115-2.286,6.3.464,3.215,2.253,5.667,3.977,5.4,1.723-.232,2.718-3.082,2.253-6.3" transform="translate(-174.363 -88.048)" fill="#fff"/>
  <path id="Trazado_10" data-name="Trazado 10" d="M336.012,172.113c-4.275,0-9.412-2.817-9.412-8.351a8.562,8.562,0,0,1,8.782-8.45c4.872,0,7.39,3.248,7.423,5.534,0,1.757-1.326,2.386-3.347,2.883-1.127.265-5.336,1.127-5.336,1.127-.5.066-.5.53-.3.961a3.868,3.868,0,0,0,3.778,2.253,5.431,5.431,0,0,0,3.215-1.326c.894-.729,1.491-.6,1.856-.265,1.16.928-1.16,5.634-6.661,5.634m-2.452-9.71,2.684-.629c.862-.166,1.027-.762.961-1.127-.265-1.525-1.226-3.016-2.783-2.784-1.127.166-2.022,1.16-1.69,3.944a.661.661,0,0,0,.829.6" transform="translate(-213.023 -101.301)" fill="#fff"/>
  <path id="Trazado_11" data-name="Trazado 11" d="M412.249,161.31a2.8,2.8,0,0,1-5-.033c-.895-1.491-1.093-2.651-1.955-2.651-1.293,0-1.094,1.458-1.094,5.236v3.347a3.583,3.583,0,0,0,.464,2.386c.63.895.829.994.829,1.425-.066.53-.4.762-1.16.762H397.6c-.762,0-1.126-.232-1.16-.762-.033-.431.165-.53.8-1.425.464-.663.464-1.06.464-2.386v-4.474c0-1.325,0-2.75-.464-3.38-.63-.9-.828-.994-.8-1.425.066-.63.53-.762,1.259-1.061,1.226-.431,4.474-1.359,4.474-1.359,1.823-.53,1.988.166,2.022,1.392a.217.217,0,0,0,.364.166,5.438,5.438,0,0,1,3.944-1.757c3.38,0,4.573,3.91,3.745,6" transform="translate(-258.575 -101.301)" fill="#fff"/>
  <path id="Trazado_12" data-name="Trazado 12" d="M451.125,172.113c-4.275,0-9.411-2.817-9.411-8.351a8.562,8.562,0,0,1,8.782-8.45c4.872,0,7.39,3.248,7.423,5.534,0,1.757-1.326,2.386-3.347,2.883-1.127.265-5.336,1.127-5.336,1.127-.5.066-.5.53-.3.961a3.869,3.869,0,0,0,3.778,2.253,5.43,5.43,0,0,0,3.214-1.326c.895-.729,1.491-.6,1.856-.265,1.16.928-1.16,5.634-6.661,5.634m-2.452-9.71,2.684-.629c.862-.166,1.027-.762.961-1.127-.265-1.525-1.226-3.016-2.783-2.784-1.126.166-2.022,1.16-1.69,3.944a.661.661,0,0,0,.829.6" transform="translate(-288.106 -101.301)" fill="#fff"/>
  <path id="Trazado_13" data-name="Trazado 13" d="M510.156,163.729c0,4.507-3.546,9.047-9.014,8.318a6.651,6.651,0,0,1-3.115-1.425c-.2-.166-.5-.232-.5.265v3.745c0,1.325,0,1.723.464,2.353.63.9.829.995.8,1.458-.033.5-.4.762-1.16.762H490.9c-.762,0-1.093-.265-1.159-.762,0-.464.2-.563.828-1.458.431-.629.464-1.027.464-2.353v-11.9a7.4,7.4,0,0,0-.464-3.38c-.63-.895-.828-.994-.828-1.425.066-.63.53-.762,1.292-1.061,1.226-.431,4.076-1.359,4.076-1.359,1.889-.563,1.989.265,1.989,1.425.033.1.132.133.2.066a6.418,6.418,0,0,1,4.408-1.69,8.189,8.189,0,0,1,8.45,8.417m-6.3-.464c-.431-3.182-2.22-5.634-3.944-5.4-1.723.265-2.751,3.115-2.286,6.3.464,3.215,2.22,5.667,3.944,5.4,1.724-.232,2.751-3.082,2.286-6.3" transform="translate(-319.432 -101.301)" fill="#fff"/>
  <path id="Trazado_14" data-name="Trazado 14" d="M567.741,163.7c0,4.507-3.911,8.417-9.412,8.417s-9.412-3.91-9.412-8.417c0-4.474,3.911-8.384,9.412-8.384s9.412,3.91,9.412,8.384m-6.3-.431c-.464-3.182-2.221-5.634-3.944-5.4-1.723.265-2.75,3.115-2.286,6.3.431,3.215,2.22,5.667,3.944,5.4,1.723-.232,2.75-3.082,2.286-6.3" transform="translate(-358.029 -101.301)" fill="#fff"/>
  <path id="Trazado_15" data-name="Trazado 15" d="M617.986,166.944c0,4.308-5.137,5.17-7.556,5.17-6.23,0-9.644-3.811-7.722-6.131a2.248,2.248,0,0,1,3.645.563c.662,1.326,1.458,3.049,3.976,3.049a1.6,1.6,0,0,0,1.723-1.524c0-1.293-1.492-1.657-3.745-2.651-1.823-.795-5.8-1.889-5.3-5.7.2-1.591,1.591-4.407,6.827-4.407,5.269,0,8.417,2.916,7.092,5.236-.7,1.193-2.485,1.127-3.48-.232-.663-.895-1.259-2.452-3.115-2.452-.8,0-1.69.3-1.69,1.326,0,1.558,2.154,2.088,3.38,2.419,2.121.564,5.965,1.525,5.965,5.336" transform="translate(-392.765 -101.301)" fill="#fff"/>
  <path id="Trazado_16" data-name="Trazado 16" d="M655.04,164.095c-2.618,0-5.832-1.292-5.832-5.6v-7.622c0-.232-.033-.4-.4-.4h-.862a1.436,1.436,0,0,1,0-2.849c5.932,0,4.209-4.607,6.164-4.607h.53c.862,0,1.027.6,1.027,1.293v2.916c0,.232.066.4.4.4h3.115a1.436,1.436,0,0,1,0,2.849h-3.115c-.331,0-.4.166-.4.4v7.059c0,2.22,2.088,2.386,3.645,1.524.563-.3,1.159-.364,1.524.066,1.127,1.326-2.121,4.573-5.8,4.573" transform="translate(-421.8 -93.283)" fill="#fff"/>
  <path id="Trazado_17" data-name="Trazado 17" d="M696.028,172.113c-4.275,0-9.412-2.817-9.412-8.351a8.562,8.562,0,0,1,8.782-8.45c4.872,0,7.39,3.248,7.423,5.534,0,1.757-1.326,2.386-3.347,2.883-1.127.265-5.336,1.127-5.336,1.127-.5.066-.5.53-.3.961a3.868,3.868,0,0,0,3.778,2.253,5.43,5.43,0,0,0,3.215-1.326c.895-.729,1.491-.6,1.856-.265,1.16.928-1.16,5.634-6.661,5.634m-2.452-9.71,2.684-.629c.862-.166,1.027-.762.961-1.127-.265-1.525-1.226-3.016-2.783-2.784-1.127.166-2.022,1.16-1.69,3.944a.661.661,0,0,0,.829.6" transform="translate(-447.842 -101.301)" fill="#fff"/>
  <path id="Trazado_18" data-name="Trazado 18" d="M750.54,161.31a2.8,2.8,0,0,1-5-.033c-.895-1.491-1.093-2.651-1.955-2.651-1.293,0-1.094,1.458-1.094,5.236v3.347a3.583,3.583,0,0,0,.464,2.386c.63.895.829.994.829,1.425-.066.53-.4.762-1.16.762h-6.727c-.762,0-1.126-.232-1.16-.762-.033-.431.166-.53.8-1.425.464-.663.464-1.06.464-2.386v-4.474c0-1.325,0-2.75-.464-3.38-.63-.9-.828-.994-.8-1.425.066-.63.53-.762,1.259-1.061,1.226-.431,4.474-1.359,4.474-1.359,1.823-.53,1.988.166,2.022,1.392a.217.217,0,0,0,.364.166,5.437,5.437,0,0,1,3.943-1.757c3.38,0,4.573,3.91,3.745,6" transform="translate(-479.223 -101.301)" fill="#fff"/>
  <path id="Trazado_19" data-name="Trazado 19" d="M790.569,156.49c-.066.53-.4.762-1.16.762h-6.727c-.762,0-1.127-.232-1.16-.762-.033-.431.166-.53.8-1.425.464-.629.5-1.06.5-2.386V148.2c0-1.325-.033-2.75-.5-3.38-.63-.9-.828-.994-.8-1.425.066-.63.53-.762,1.293-1.061,1.193-.431,4.441-1.359,4.441-1.359,2.055-.629,2.021.431,2.021,1.757v9.942c0,1.326.033,1.757.464,2.386.663.9.862.994.828,1.425m-6.827-16.934c-.729.265-1.027-.033-1.425-.629s-.5-.961,0-1.525l3.148-3.413c1.16-1.193,2.287-1.492,3.579.431,1.292,1.955.6,2.817-.961,3.446Z" transform="translate(-509.741 -86.771)" fill="#fff"/>
  <path id="Trazado_20" data-name="Trazado 20" d="M825.2,171.02c-.033.53-.3.7-1.16.762,0,0-4.01.331-5.236.331-.862,0-1.193-.331-1.293-1.027,0-.2-.2-.232-.331-.1a5.464,5.464,0,0,1-3.414,1.127c-3.579,0-6.131-2.088-6.131-5.3,0-4.772,6.5-6.694,9.511-3.976a.208.208,0,0,0,.364-.133v-.762c0-2.021.1-3.844-1.093-4.043-1.69-.3-1.724,1.425-2.386,2.353a2.647,2.647,0,0,1-4.01.1c-1.558-2.121,1.259-5.037,6.23-5.037,4.54,0,7.688,2.055,7.688,6.893v5.071a3.426,3.426,0,0,0,.464,2.32c.629.9.828.994.8,1.425m-7.689-4.507c-.232-1.79-1.325-3.115-2.386-2.949-1.06.132-1.69,1.723-1.425,3.479.232,1.79,1.293,3.115,2.353,2.95,1.061-.133,1.723-1.723,1.458-3.48" transform="translate(-526.778 -101.301)" fill="#fff"/>
  <path id="Trazado_21" data-name="Trazado 21" d="M337.2,258.858Z" transform="translate(-219.934 -159.641)" fill="#fff"/>
  <path id="Trazado_33" data-name="Trazado 33" d="M61.488,99.623a18.915,18.915,0,0,1,2.816,7.72,14.119,14.119,0,0,1,.084,1.524,11.741,11.741,0,0,1-4.035,9.047,11.394,11.394,0,0,1-5.2,2.568,12.735,12.735,0,0,1-5.829-.2c-3.665-.956-7.32-3.451-10.57-7.216-3.032-3.512-4.991-8.6-6.253-13.443H0a40.507,40.507,0,0,0,81.014,0Z" transform="translate(0 -64.979)" fill="#fff"/>
  <path id="Trazado_34" data-name="Trazado 34" d="M61.768,27.729c.779,4.7,2.672,13.168,6.684,17.814,2.733,3.165,5.709,5.238,8.608,5.994a7.865,7.865,0,0,0,10.132-8.75c-.326-2.977-1.942-6.224-4.675-9.389C78.5,28.751,70.4,25.644,65.866,24.189L45.777.937A2.712,2.712,0,0,0,42.68.21a2.683,2.683,0,0,0-.721.447h0a2.71,2.71,0,0,0-.28,3.818Zm19.139,7.06c2.8,3.245,4.244,6.463,4.239,9.132a28.887,28.887,0,0,0-5.3-8.217,45.141,45.141,0,0,0-8.226-7.048c3.49,1.553,7.113,3.618,9.285,6.133m-2.669,2.3a26.308,26.308,0,0,1,5.006,7.791,5.888,5.888,0,0,1,.408,2.418L67.3,28.366c3.566,2.238,8.083,5.422,10.938,8.727m3.8,11.6a5.888,5.888,0,0,1-2.332-.756,26.3,26.3,0,0,1-6.978-6.088h0c-2.851-3.3-5.344-8.236-7.039-12.09ZM71.122,43.239a29.15,29.15,0,0,0,7.329,6.435c-2.634-.394-5.6-2.287-8.388-5.52-2.172-2.515-3.687-6.4-4.715-10.08a45.124,45.124,0,0,0,5.773,9.165M43.9,2.785a1.467,1.467,0,1,1-.151,2.069A1.467,1.467,0,0,1,43.9,2.785" transform="translate(-26.756 0)" fill="#fff"/>
</svg>
